<svg xmlns="http://www.w3.org/2000/svg" xmlns:xlink="http://www.w3.org/1999/xlink" id="Layer_1" x="0px" y="0px" viewBox="0 0 180 63.2" style="enable-background:new 0 0 180 63.2;" xml:space="preserve"><style type="text/css">	.st0{fill:#4080C2;}	.st1{fill:#4180C3;}	.st2{fill:#FFFFFF;}	.st3{fill:#132B48;}	.st4{fill:#C4A468;}	.st5{fill:#E0E1E0;}	.st6{fill:#AAB8C5;}</style><g>	<g>		<g>			<path class="st2" d="M21.8,12.6v31h-9.4v-31h-11V4.6h31.5v8.1H21.8z"></path>			<path class="st2" d="M28.5,19.9c1.6-1.5,3.5-2.7,5.7-3.5c2.2-0.8,4.4-1.2,6.6-1.2c2.3,0,4.3,0.3,5.9,0.9c1.6,0.6,2.9,1.5,3.9,2.7    c1,1.2,1.7,2.7,2.2,4.5c0.5,1.8,0.7,4,0.7,6.5v13.9h-8.3v-2.9H45c-0.7,1.1-1.8,2-3.2,2.7c-1.4,0.6-3,0.9-4.6,0.9    c-1.1,0-2.2-0.1-3.4-0.4c-1.2-0.3-2.3-0.8-3.2-1.4c-1-0.7-1.8-1.5-2.4-2.7c-0.6-1.1-0.9-2.5-0.9-4.1c0-2,0.5-3.6,1.6-4.8    c1.1-1.2,2.5-2.2,4.2-2.8c1.7-0.7,3.6-1.1,5.7-1.3c2.1-0.2,4.1-0.3,6.1-0.3V26c0-1.4-0.5-2.4-1.4-3c-1-0.6-2.1-1-3.5-1    c-1.3,0-2.5,0.3-3.7,0.8c-1.2,0.6-2.2,1.2-3.1,2L28.5,19.9z M45.1,31.7H44c-1,0-2,0-3,0.1c-1,0.1-1.9,0.3-2.7,0.5    c-0.8,0.3-1.4,0.6-2,1.1c-0.5,0.5-0.8,1.2-0.8,2c0,0.5,0.1,1,0.4,1.3c0.2,0.4,0.5,0.7,0.9,0.9c0.4,0.2,0.8,0.4,1.3,0.5    c0.5,0.1,0.9,0.1,1.4,0.1c1.8,0,3.3-0.5,4.2-1.5c1-1,1.5-2.4,1.5-4.1V31.7z"></path>			<path class="st2" d="M74.7,43.7V28.8c0-0.8-0.1-1.5-0.2-2.2c-0.1-0.7-0.3-1.3-0.6-1.9c-0.3-0.5-0.7-1-1.2-1.3    c-0.5-0.3-1.2-0.5-2-0.5c-1.6,0-2.8,0.6-3.6,1.7c-0.8,1.1-1.3,2.5-1.3,4.2v14.9h-9.1V1.9h9.1v17.7h0.1c0.6-1.1,1.6-2.1,3-3    c1.4-0.9,3-1.3,4.9-1.3c1.9,0,3.5,0.3,4.7,1c1.3,0.7,2.3,1.5,3.1,2.6c0.8,1,1.4,2.3,1.7,3.6c0.3,1.4,0.5,2.7,0.5,4.1v17H74.7z"></path>			<path class="st2" d="M114.3,30.3c0,0.4,0,0.7,0,1.1c0,0.4,0,0.7-0.1,1H94.3c0.1,0.8,0.3,1.5,0.7,2.1c0.4,0.6,0.9,1.2,1.5,1.6    c0.6,0.5,1.3,0.8,2,1.1c0.8,0.3,1.5,0.4,2.3,0.4c1.4,0,2.7-0.3,3.6-0.8c1-0.5,1.8-1.2,2.4-2.1l6.3,4c-1.3,1.9-3,3.3-5.1,4.3    c-2.1,1-4.6,1.5-7.4,1.5c-2.1,0-4-0.3-5.9-1c-1.8-0.6-3.5-1.6-4.8-2.8c-1.4-1.2-2.5-2.8-3.3-4.6c-0.8-1.8-1.2-3.9-1.2-6.2    c0-2.2,0.4-4.3,1.2-6.1c0.8-1.8,1.8-3.4,3.1-4.6c1.3-1.3,2.9-2.3,4.7-3c1.8-0.7,3.8-1,5.9-1c2,0,3.9,0.3,5.6,1    c1.7,0.7,3.1,1.7,4.4,3c1.2,1.3,2.2,2.9,2.8,4.7C114,25.8,114.3,27.9,114.3,30.3z M106,26.8c0-1.4-0.5-2.7-1.4-3.7    c-0.9-1-2.3-1.5-4.1-1.5c-0.9,0-1.7,0.1-2.4,0.4c-0.7,0.3-1.4,0.7-1.9,1.1c-0.6,0.5-1,1-1.3,1.7c-0.3,0.6-0.5,1.3-0.6,2H106z"></path>			<path class="st2" d="M135.3,25.1c-0.5-0.7-1.2-1.2-2.1-1.6c-0.9-0.4-1.8-0.6-2.7-0.6c-1,0-1.8,0.2-2.6,0.6    c-0.8,0.4-1.4,0.9-2,1.5c-0.6,0.6-1,1.4-1.3,2.2c-0.3,0.8-0.5,1.7-0.5,2.7c0,1,0.1,1.9,0.4,2.7c0.3,0.8,0.7,1.6,1.3,2.2    c0.6,0.6,1.3,1.2,2,1.5c0.8,0.4,1.7,0.6,2.7,0.6c0.9,0,1.8-0.2,2.7-0.5c0.9-0.3,1.6-0.9,2.2-1.5l5,6.1c-1.1,1.1-2.6,2-4.4,2.6    c-1.8,0.6-3.7,0.9-5.7,0.9c-2.2,0-4.2-0.3-6.1-1c-1.9-0.7-3.5-1.6-4.9-2.9c-1.4-1.3-2.5-2.8-3.3-4.6c-0.8-1.8-1.2-3.8-1.2-6.1    c0-2.2,0.4-4.3,1.2-6.1c0.8-1.8,1.9-3.3,3.3-4.6c1.4-1.3,3-2.2,4.9-2.9c1.9-0.7,3.9-1,6-1c1,0,2,0.1,3,0.3c1,0.2,1.9,0.4,2.8,0.7    c0.9,0.3,1.7,0.7,2.5,1.2c0.8,0.5,1.4,1,2,1.5L135.3,25.1z"></path>			<path class="st2" d="M158.9,43.7V28.8c0-0.8-0.1-1.5-0.2-2.2c-0.1-0.7-0.3-1.3-0.6-1.9c-0.3-0.5-0.7-1-1.2-1.3    c-0.5-0.3-1.2-0.5-2-0.5c-1.6,0-2.8,0.6-3.6,1.7c-0.8,1.1-1.3,2.5-1.3,4.2v14.9h-9.1V1.9h9.1v17.7h0.1c0.6-1.1,1.6-2.1,3-3    c1.4-0.9,3-1.3,4.9-1.3c1.9,0,3.5,0.3,4.7,1c1.3,0.7,2.3,1.5,3.1,2.6c0.8,1,1.4,2.3,1.7,3.6c0.3,1.4,0.5,2.7,0.5,4.1v17H158.9z"></path>		</g>	</g>	<g>		<path class="st2" d="M14.9,53.5l-3.2,7.6H14l0.5-1.4h2.6l0.6,1.4H20l-3.2-7.6H14.9z M16.5,57.9h-1.4l0.7-1.9L16.5,57.9z"></path>		<path class="st2" d="M28.9,54.3c-0.4-0.3-0.9-0.5-1.4-0.6c-0.5-0.1-1-0.2-1.6-0.2h-2.8v7.6h2.9c0.5,0,1-0.1,1.5-0.2   c0.5-0.1,1-0.4,1.4-0.7c0.4-0.3,0.7-0.7,1-1.2c0.2-0.5,0.4-1.1,0.4-1.7c0-0.7-0.1-1.3-0.4-1.8C29.7,55,29.4,54.6,28.9,54.3z    M25.2,55.3h0.7c0.3,0,0.6,0,0.8,0.1c0.3,0.1,0.5,0.2,0.7,0.3c0.2,0.1,0.4,0.3,0.5,0.6c0.1,0.2,0.2,0.6,0.2,1c0,0.4-0.1,0.7-0.2,1   c-0.1,0.3-0.3,0.5-0.5,0.6c-0.2,0.2-0.5,0.3-0.7,0.3c-0.3,0.1-0.6,0.1-0.9,0.1h-0.7V55.3z"></path>		<polygon class="st2" points="36.8,58.4 35.2,53.5 32.8,53.5 35.7,61.1 37.7,61.1 40.6,53.5 38.4,53.5   "></polygon>		<path class="st2" d="M50.2,54.3c-0.4-0.3-0.8-0.6-1.3-0.8c-1-0.4-2.3-0.4-3.3,0c-0.5,0.2-0.9,0.5-1.3,0.8   c-0.4,0.3-0.7,0.8-0.9,1.3c-0.2,0.5-0.3,1-0.3,1.6c0,0.6,0.1,1.1,0.3,1.6c0.2,0.5,0.5,0.9,0.9,1.3c0.4,0.4,0.8,0.6,1.3,0.8   c0.5,0.2,1.1,0.3,1.6,0.3c0.6,0,1.1-0.1,1.6-0.3c0.5-0.2,0.9-0.5,1.3-0.8c0.4-0.4,0.7-0.8,0.9-1.3c0.2-0.5,0.3-1,0.3-1.6   c0-0.6-0.1-1.2-0.3-1.6C50.9,55.1,50.6,54.7,50.2,54.3z M49.2,57.2c0,0.3,0,0.6-0.1,0.9c-0.1,0.3-0.2,0.5-0.4,0.7   c-0.2,0.2-0.4,0.3-0.6,0.4c-0.5,0.2-1.1,0.2-1.6,0c-0.2-0.1-0.4-0.3-0.6-0.4c-0.2-0.2-0.3-0.4-0.4-0.7c-0.1-0.3-0.1-0.6-0.1-0.9   c0-0.3,0-0.6,0.1-0.8c0.1-0.3,0.2-0.5,0.4-0.7c0.2-0.2,0.4-0.3,0.6-0.4c0.2-0.1,0.5-0.2,0.8-0.2c0.3,0,0.6,0.1,0.8,0.2   c0.2,0.1,0.4,0.2,0.6,0.4c0.2,0.2,0.3,0.4,0.4,0.7C49.2,56.7,49.2,56.9,49.2,57.2z"></path>		<path class="st2" d="M57.5,55.7c0.2-0.2,0.4-0.3,0.6-0.4c0.5-0.2,1.2-0.2,1.7,0c0.3,0.1,0.5,0.3,0.6,0.5l0.1,0.1l1.3-1.5l-0.1-0.1   c-0.3-0.3-0.7-0.6-1.3-0.7c-1-0.4-2.3-0.4-3.3,0c-0.5,0.2-0.9,0.5-1.3,0.8c-0.4,0.3-0.7,0.8-0.9,1.3c-0.2,0.5-0.3,1-0.3,1.7   c0,0.6,0.1,1.1,0.3,1.6c0.2,0.5,0.5,0.9,0.9,1.3c0.4,0.3,0.8,0.6,1.3,0.8c0.5,0.2,1.1,0.3,1.7,0.3c0.6,0,1.1-0.1,1.6-0.2h0   c0.5-0.1,0.9-0.3,1.3-0.5l0.1,0v-4.1h-3.3v1.7H60v1.1c-0.1,0-0.3,0.1-0.4,0.1c-0.2,0-0.4,0-0.6,0c-0.3,0-0.6-0.1-0.9-0.2   c-0.3-0.1-0.5-0.3-0.7-0.4c-0.2-0.2-0.3-0.4-0.4-0.7C57,57.9,57,57.6,57,57.3c0-0.3,0.1-0.6,0.2-0.9   C57.2,56.1,57.4,55.9,57.5,55.7z"></path>		<path class="st2" d="M68.2,53.5L65,61.1h2.2l0.5-1.4h2.6l0.6,1.4h2.3l-3.2-7.6H68.2z M69.9,57.9h-1.4l0.7-1.9L69.9,57.9z"></path>		<path class="st2" d="M82.3,54.3c-0.4-0.3-0.9-0.5-1.4-0.6c-0.5-0.1-1-0.2-1.6-0.2h-2.8v7.6h2.9c0.5,0,1-0.1,1.5-0.2   c0.5-0.1,1-0.4,1.4-0.7c0.4-0.3,0.7-0.7,1-1.2c0.2-0.5,0.4-1.1,0.4-1.7c0-0.7-0.1-1.3-0.4-1.8C83,55,82.7,54.6,82.3,54.3z    M78.5,55.3h0.7c0.3,0,0.6,0,0.8,0.1c0.3,0.1,0.5,0.2,0.7,0.3c0.2,0.1,0.4,0.3,0.5,0.6c0.1,0.2,0.2,0.6,0.2,1c0,0.4-0.1,0.7-0.2,1   c-0.1,0.3-0.3,0.5-0.5,0.6c-0.2,0.2-0.5,0.3-0.7,0.3c-0.3,0.1-0.6,0.1-0.9,0.1h-0.7V55.3z"></path>		<path class="st2" d="M94.1,54.3c-0.4-0.3-0.8-0.6-1.3-0.8c-1-0.4-2.3-0.4-3.3,0c-0.5,0.2-0.9,0.5-1.3,0.8   c-0.4,0.3-0.7,0.8-0.9,1.3c-0.2,0.5-0.3,1-0.3,1.6c0,0.6,0.1,1.1,0.3,1.6c0.2,0.5,0.5,0.9,0.9,1.3c0.4,0.4,0.8,0.6,1.3,0.8   c0.5,0.2,1.1,0.3,1.6,0.3c0.6,0,1.1-0.1,1.6-0.3c0.5-0.2,0.9-0.5,1.3-0.8c0.4-0.4,0.7-0.8,0.9-1.3c0.2-0.5,0.3-1,0.3-1.6   c0-0.6-0.1-1.2-0.3-1.6C94.7,55.1,94.5,54.7,94.1,54.3z M93.1,57.2c0,0.3,0,0.6-0.1,0.9c-0.1,0.3-0.2,0.5-0.4,0.7   c-0.2,0.2-0.4,0.3-0.6,0.4c-0.5,0.2-1.1,0.2-1.6,0c-0.2-0.1-0.4-0.3-0.6-0.4c-0.2-0.2-0.3-0.4-0.4-0.7c-0.1-0.3-0.1-0.6-0.1-0.9   c0-0.3,0-0.6,0.1-0.8c0.1-0.3,0.2-0.5,0.4-0.7c0.2-0.2,0.4-0.3,0.6-0.4c0.2-0.1,0.5-0.2,0.8-0.2c0.3,0,0.6,0.1,0.8,0.2   c0.2,0.1,0.4,0.2,0.6,0.4c0.2,0.2,0.3,0.4,0.4,0.7C93,56.7,93.1,56.9,93.1,57.2z"></path>		<path class="st2" d="M103.3,57c-0.2-0.2-0.5-0.3-0.8-0.4c-0.3-0.1-0.5-0.2-0.8-0.3c-0.2-0.1-0.3-0.1-0.5-0.2   c-0.1,0-0.2-0.1-0.3-0.2c-0.1,0-0.1-0.1-0.2-0.2c0-0.1-0.1-0.1-0.1-0.2c0-0.1,0-0.2,0.1-0.3c0.1-0.1,0.1-0.1,0.2-0.2   c0.1,0,0.2-0.1,0.3-0.1c0.3-0.1,0.6,0,1,0.1c0.2,0.1,0.4,0.2,0.5,0.4l0.1,0.1l1.3-1.4l-0.1-0.1c-0.3-0.3-0.7-0.5-1.2-0.7   c-0.8-0.3-1.6-0.3-2.4-0.1c-0.4,0.1-0.7,0.2-1,0.4c-0.3,0.2-0.5,0.5-0.7,0.8c-0.2,0.3-0.3,0.7-0.3,1.1c0,0.4,0.1,0.7,0.2,0.9   c0.1,0.2,0.3,0.5,0.5,0.6c0.2,0.2,0.4,0.3,0.6,0.4c0.2,0.1,0.5,0.2,0.7,0.3c0.2,0.1,0.5,0.1,0.6,0.2c0.2,0.1,0.3,0.1,0.4,0.2   c0.1,0.1,0.2,0.1,0.3,0.2c0.1,0.1,0.1,0.2,0.1,0.3c0,0.1,0,0.2-0.1,0.3c0,0.1-0.1,0.1-0.2,0.2c-0.1,0.1-0.2,0.1-0.3,0.1   c-0.4,0.1-0.8,0-1.2-0.2c-0.3-0.1-0.5-0.3-0.7-0.5l-0.1-0.1l-1.4,1.4l0.1,0.1c0.3,0.4,0.8,0.6,1.3,0.8c0.5,0.2,1,0.3,1.6,0.3   c0.4,0,0.7-0.1,1.1-0.2c0.4-0.1,0.7-0.3,0.9-0.5c0.3-0.2,0.5-0.5,0.7-0.8c0.2-0.3,0.2-0.7,0.2-1.2c0-0.4-0.1-0.7-0.2-1   C103.8,57.4,103.6,57.2,103.3,57z"></path>	</g>	<rect x="171.9" y="36.9" class="st2" width="6.8" height="6.8"></rect></g></svg>